<svg xmlns="http://www.w3.org/2000/svg" width="1200" height="700" viewBox="0 0 1200 700">
<defs>
  <linearGradient id="bg" x1="0" y1="0" x2="1" y2="1"><stop offset="0" stop-color="#f7f7f7"/><stop offset="1" stop-color="#eceef2"/></linearGradient>
  <linearGradient id="pack" x1="0" y1="0" x2="0" y2="1"><stop offset="0" stop-color="#2f7ae5"/><stop offset="1" stop-color="#0a49ad"/></linearGradient>
  <linearGradient id="bowl" x1="0" y1="0" x2="0" y2="1"><stop offset="0" stop-color="#323236"/><stop offset="1" stop-color="#111"/></linearGradient>
</defs>
<rect width="1200" height="700" fill="url(#bg)"/>
<ellipse cx="780" cy="480" rx="290" ry="85" fill="#d2d5db"/>
<rect x="120" y="100" width="440" height="470" rx="22" fill="url(#pack)"/>
<rect x="120" y="135" width="440" height="55" fill="#f5f3ec"/>
<rect x="120" y="505" width="440" height="65" fill="#f5f3ec"/>

<text x="190" y="175" font-size="62" font-family="Arial" fill="#1f1b1d">Ching's</text>
<rect x="160" y="245" width="360" height="145" rx="28" fill="#0a49ad" stroke="#fff" stroke-opacity="0.35"/>
<text x="180" y="337" font-size="86" font-family="Arial" font-weight="700" fill="#fff">K-Bold</text>
<rect x="405" y="205" width="120" height="42" rx="16" fill="#ffd867"/>
<text x="430" y="235" font-size="28" font-family="Arial" font-weight="700" fill="#4b3c1c">BOLD</text>
<ellipse cx="795" cy="445" rx="255" ry="120" fill="url(#bowl)"/>
<ellipse cx="795" cy="440" rx="225" ry="92" fill="#ea8e2f"/>
<path d="M610 392 q 18 -14 36 2 q 18 14 36 0" stroke="#ffc25a" stroke-width="7" fill="none" stroke-linecap="round"/><path d="M652 392 q 18 -14 36 2 q 18 14 36 0" stroke="#ffc25a" stroke-width="7" fill="none" stroke-linecap="round"/><path d="M694 392 q 18 -14 36 2 q 18 14 36 0" stroke="#ffc25a" stroke-width="7" fill="none" stroke-linecap="round"/><path d="M736 392 q 18 -14 36 2 q 18 14 36 0" stroke="#ffc25a" stroke-width="7" fill="none" stroke-linecap="round"/><path d="M778 392 q 18 -14 36 2 q 18 14 36 0" stroke="#ffc25a" stroke-width="7" fill="none" stroke-linecap="round"/><path d="M820 392 q 18 -14 36 2 q 18 14 36 0" stroke="#ffc25a" stroke-width="7" fill="none" stroke-linecap="round"/><path d="M862 392 q 18 -14 36 2 q 18 14 36 0" stroke="#ffc25a" stroke-width="7" fill="none" stroke-linecap="round"/><path d="M904 392 q 18 -14 36 2 q 18 14 36 0" stroke="#ffc25a" stroke-width="7" fill="none" stroke-linecap="round"/><path d="M946 392 q 18 -14 36 2 q 18 14 36 0" stroke="#ffc25a" stroke-width="7" fill="none" stroke-linecap="round"/><path d="M610 422 q 18 -14 36 2 q 18 14 36 0" stroke="#ffc25a" stroke-width="7" fill="none" stroke-linecap="round"/><path d="M652 422 q 18 -14 36 2 q 18 14 36 0" stroke="#ffc25a" stroke-width="7" fill="none" stroke-linecap="round"/><path d="M694 422 q 18 -14 36 2 q 18 14 36 0" stroke="#ffc25a" stroke-width="7" fill="none" stroke-linecap="round"/><path d="M736 422 q 18 -14 36 2 q 18 14 36 0" stroke="#ffc25a" stroke-width="7" fill="none" stroke-linecap="round"/><path d="M778 422 q 18 -14 36 2 q 18 14 36 0" stroke="#ffc25a" stroke-width="7" fill="none" stroke-linecap="round"/><path d="M820 422 q 18 -14 36 2 q 18 14 36 0" stroke="#ffc25a" stroke-width="7" fill="none" stroke-linecap="round"/><path d="M862 422 q 18 -14 36 2 q 18 14 36 0" stroke="#ffc25a" stroke-width="7" fill="none" stroke-linecap="round"/><path d="M904 422 q 18 -14 36 2 q 18 14 36 0" stroke="#ffc25a" stroke-width="7" fill="none" stroke-linecap="round"/><path d="M946 422 q 18 -14 36 2 q 18 14 36 0" stroke="#ffc25a" stroke-width="7" fill="none" stroke-linecap="round"/><path d="M610 452 q 18 -14 36 2 q 18 14 36 0" stroke="#ffc25a" stroke-width="7" fill="none" stroke-linecap="round"/><path d="M652 452 q 18 -14 36 2 q 18 14 36 0" stroke="#ffc25a" stroke-width="7" fill="none" stroke-linecap="round"/><path d="M694 452 q 18 -14 36 2 q 18 14 36 0" stroke="#ffc25a" stroke-width="7" fill="none" stroke-linecap="round"/><path d="M736 452 q 18 -14 36 2 q 18 14 36 0" stroke="#ffc25a" stroke-width="7" fill="none" stroke-linecap="round"/><path d="M778 452 q 18 -14 36 2 q 18 14 36 0" stroke="#ffc25a" stroke-width="7" fill="none" stroke-linecap="round"/><path d="M820 452 q 18 -14 36 2 q 18 14 36 0" stroke="#ffc25a" stroke-width="7" fill="none" stroke-linecap="round"/><path d="M862 452 q 18 -14 36 2 q 18 14 36 0" stroke="#ffc25a" stroke-width="7" fill="none" stroke-linecap="round"/><path d="M904 452 q 18 -14 36 2 q 18 14 36 0" stroke="#ffc25a" stroke-width="7" fill="none" stroke-linecap="round"/><path d="M946 452 q 18 -14 36 2 q 18 14 36 0" stroke="#ffc25a" stroke-width="7" fill="none" stroke-linecap="round"/><ellipse cx="860" cy="392" rx="36" ry="18" fill="#ede0c8"/><ellipse cx="905" cy="398" rx="30" ry="16" fill="#f2e7d1"/><rect x="760" y="360" width="7" height="22" rx="3" fill="#4ca050" transform="rotate(-12 760 360)"/><rect x="772" y="360" width="7" height="22" rx="3" fill="#4ca050" transform="rotate(-8 772 360)"/><rect x="784" y="360" width="7" height="22" rx="3" fill="#4ca050" transform="rotate(-4 784 360)"/><rect x="796" y="360" width="7" height="22" rx="3" fill="#4ca050" transform="rotate(0 796 360)"/><rect x="808" y="360" width="7" height="22" rx="3" fill="#4ca050" transform="rotate(4 808 360)"/><rect x="820" y="360" width="7" height="22" rx="3" fill="#4ca050" transform="rotate(8 820 360)"/></svg>